<?xml version="1.0" standalone="no"?>
<!DOCTYPE svg PUBLIC "-//W3C//DTD SVG 20010904//EN"
 "http://www.w3.org/TR/2001/REC-SVG-20010904/DTD/svg10.dtd">
<svg version="1.0" xmlns="http://www.w3.org/2000/svg"
 width="500.000000pt" height="500.000000pt" viewBox="0 0 500.000000 500.000000"
 preserveAspectRatio="xMidYMid meet">
<metadata>
Created by potrace 1.11, written by Peter Selinger 2001-2013
</metadata>
<g transform="translate(0.000000,500.000000) scale(0.100000,-0.100000)"
fill="#000000" stroke="none">
<path d="M205 4987 c-88 -35 -141 -85 -181 -171 l-24 -51 0 -1800 0 -1800 25
-52 c32 -71 102 -137 171 -162 53 -20 74 -21 554 -21 l500 0 0 -417 c0 -397 1
-420 20 -450 10 -18 33 -39 49 -48 38 -19 133 -20 169 -1 15 8 229 217 477
465 l450 451 1167 0 c1154 0 1168 0 1222 21 69 25 139 91 171 162 l25 52 0
1800 0 1800 -24 51 c-32 68 -83 124 -143 154 l-48 25 -2275 2 c-1728 1 -2282
-1 -2305 -10z m2751 -261 c138 -34 154 -48 161 -138 7 -110 -32 -148 -128
-123 -249 68 -511 65 -887 -11 -96 -19 -127 -22 -144 -13 -20 11 -20 10 -14
-52 15 -153 37 -627 52 -1102 6 -186 9 -217 22 -212 30 11 243 45 381 60 156
17 160 16 187 -36 31 -61 5 -184 -41 -194 -11 -2 -99 -14 -195 -25 -96 -12
-213 -29 -260 -39 l-85 -17 3 -94 c2 -52 16 -331 33 -620 16 -289 29 -538 29
-555 0 -55 7 -57 111 -36 335 69 623 74 868 16 128 -31 139 -40 148 -127 7
-67 -15 -125 -50 -133 -13 -4 -63 3 -111 14 -233 56 -467 52 -816 -11 -63 -12
-140 -23 -171 -25 -51 -4 -58 -2 -76 21 -12 14 -23 45 -27 68 -20 139 -78
1386 -96 2058 -11 427 -19 579 -46 985 -19 277 -17 294 39 325 27 14 29 14 53
-13 13 -15 24 -38 24 -50 l0 -22 18 23 c22 28 79 44 277 77 207 34 196 33 425
31 186 -2 215 -5 316 -30z m-2647 -32 c12 -15 21 -35 21 -45 0 -11 3 -19 6
-19 3 0 45 14 92 32 79 29 98 32 207 32 130 1 181 -9 322 -63 166 -64 244
-136 322 -295 110 -223 148 -466 122 -766 -20 -230 -68 -383 -152 -482 l-39
-47 73 -73 c127 -127 206 -276 255 -483 24 -100 26 -127 25 -295 -2 -398 -62
-598 -228 -766 -103 -104 -195 -147 -376 -174 -148 -22 -517 -45 -550 -35 -42
14 -49 58 -74 498 -44 769 -55 1008 -65 1412 -17 688 -42 1209 -61 1275 -6 20
-9 89 -7 154 3 115 4 118 31 142 36 31 51 30 76 -2z m3124 5 c22 -16 30 -18
48 -8 34 18 67 -15 106 -106 94 -222 416 -1102 528 -1445 98 -302 476 -1325
496 -1345 7 -7 9 -3 5 15 -3 14 -7 79 -11 145 -3 66 -12 242 -20 390 -9 149
-20 466 -25 705 -11 486 -24 813 -46 1155 -8 127 -17 280 -21 341 l-6 110 31
35 c30 33 32 34 59 19 16 -9 33 -30 39 -50 17 -51 45 -481 69 -1055 3 -77 10
-320 15 -540 9 -393 36 -968 65 -1399 18 -263 19 -340 4 -369 -35 -67 -93 -88
-121 -44 -32 47 -500 1308 -645 1732 -221 650 -506 1425 -519 1412 -3 -2 0
-76 6 -163 20 -327 31 -581 40 -1014 10 -450 33 -972 70 -1554 22 -335 20
-365 -20 -401 -28 -26 -62 -15 -82 25 -13 27 -21 109 -37 370 -38 605 -61
1108 -71 1550 -12 524 -34 994 -61 1292 -12 129 -4 176 34 203 28 20 39 19 70
-6z"/>
<path d="M460 4417 l-95 -32 2 -85 c1 -47 7 -164 12 -260 6 -96 16 -337 22
-536 l13 -361 167 -6 c101 -4 189 -3 223 4 31 5 60 8 65 4 17 -10 137 22 190
51 102 55 165 151 194 294 6 30 11 138 11 240 1 210 -14 290 -81 430 -52 108
-115 170 -219 215 -198 85 -343 97 -504 42z"/>
<path d="M424 2702 c7 -196 50 -1006 62 -1161 l7 -83 106 7 c175 11 375 33
447 50 86 20 168 70 237 144 95 103 121 182 139 424 11 141 10 171 -5 259 -30
174 -98 310 -208 414 -127 119 -175 131 -523 137 l-269 4 7 -195z"/>
</g>
</svg>
